<svg width="40" height="40" viewBox="0 0 40 40" fill="none" xmlns="http://www.w3.org/2000/svg">
<path d="M35.7834 7.25L33.5501 6.31667V21.3667L37.6001 11.6C38.2834 9.9 37.5001 7.95 35.7834 7.25ZM3.28343 13.4167L11.5501 33.3333C12.0668 34.6167 13.2834 35.4 14.5668 35.4333C15.0001 35.4333 15.4501 35.35 15.8834 35.1667L28.1668 30.0833C29.4168 29.5667 30.1834 28.3333 30.2168 27.1C30.2334 26.6667 30.1501 26.1833 30.0001 25.75L21.6668 5.83333C21.1834 4.55 19.9501 3.76667 18.6501 3.75C18.2168 3.75 17.7834 3.85 17.3668 4L5.1001 9.08333C3.4001 9.78333 2.58343 11.7333 3.28343 13.4167ZM30.2001 7.08333C30.2001 6.19928 29.8489 5.35143 29.2238 4.72631C28.5987 4.10119 27.7508 3.75 26.8668 3.75H24.4501L30.2001 17.65" fill="#951228"/>
</svg>
