<svg width="40" height="40" viewBox="0 0 40 40" fill="none" xmlns="http://www.w3.org/2000/svg">
<g clip-path="url(#clip0_184_55)">
<path d="M20 0.3125C9.15625 0.3125 0.3125 9.15625 0.3125 20C0.3125 30.8438 9.15625 39.6875 20 39.6875C30.8438 39.6875 39.6875 30.8438 39.6875 20C39.6875 9.15625 30.8438 0.3125 20 0.3125ZM20 37.1875C10.5312 37.1875 2.8125 29.4688 2.8125 20C2.8125 10.5312 10.5312 2.8125 20 2.8125C29.4688 2.8125 37.1875 10.5312 37.1875 20C37.1875 29.4688 29.4688 37.1875 20 37.1875Z" fill="#951228"/>
<path d="M21.25 17.0312H18.75V29.5312H21.25V17.0312Z" fill="#951228"/>
<path d="M21.25 11.0938H18.75V13.5938H21.25V11.0938Z" fill="#951228"/>
</g>
<defs>
<clipPath id="clip0_184_55">
<rect width="40" height="40" fill="white"/>
</clipPath>
</defs>
</svg>
