<svg width="40" height="40" viewBox="0 0 40 40" fill="none" xmlns="http://www.w3.org/2000/svg">
<path d="M18.5251 34.1341V25.6946L20.1243 25.9567L21.7235 25.6946V34.1341H18.5251Z" fill="#951228"/>
<path d="M9.15161 5.30824C9.15161 5.30824 3.62834 2.54661 3.6485 7.95565C3.6485 7.95565 3.59474 12.7331 6.7125 16.6504C6.7125 16.6504 9.14489 20.1041 13.3579 21.4211C13.3579 21.4211 12.1887 19.6204 11.6042 18.2496C11.6042 18.2496 7.77415 16.0726 6.39669 11.5841C6.39669 11.5841 3.9643 5.42247 9.14489 7.61296V5.30824H9.15161Z" fill="#951228"/>
<path d="M20.1241 25.9567C22.8992 25.9567 25.2039 23.4504 25.2039 23.4504C28.0596 20.5678 29.6185 15.6761 29.6185 15.6761C31.6545 10.3477 30.9086 2.10986 30.9086 2.10986H20.1241H9.33293C9.33293 2.10986 8.59381 10.3477 10.6298 15.6761C10.6298 15.6761 12.1886 20.5745 15.0443 23.4504C15.0443 23.4504 17.3491 25.9567 20.1241 25.9567Z" fill="#951228"/>
<path d="M31.1304 5.30824C31.1304 5.30824 36.6536 2.54661 36.6335 7.95565C36.6335 7.95565 36.6872 12.7331 33.5695 16.6504C33.5695 16.6504 31.1371 20.1041 26.9241 21.4211C26.9241 21.4211 28.0932 19.6204 28.6778 18.2496C28.6778 18.2496 32.5078 16.0726 33.8853 11.5841C33.8853 11.5841 36.3177 5.42247 31.1371 7.61296V5.30824H31.1304Z" fill="#951228"/>
<path d="M29.7261 35.1688H10.5156V37.9641H29.7261V35.1688Z" fill="#951228"/>
<path d="M23.4167 34.134H16.8318V35.1688H23.4167V34.134Z" fill="#951228"/>
</svg>
